Coordinates
version=1
nRows=32
nColumns=38
inDegrees=no

Units are S.I. units (second, meters, Newtons, ...)
If the header above contains a line with 'inDegrees', this indicates whether rotational values are in degrees (yes) or radians (no).

endheader
time	pelvis_tilt	pelvis_list	pelvis_rotation	pelvis_tx	pelvis_ty	pelvis_tz	hip_flexion_r	hip_adduction_r	hip_rotation_r	knee_angle_r	ankle_angle_r	subtalar_angle_r	mtp_angle_r	hip_flexion_l	hip_adduction_l	hip_rotation_l	knee_angle_l	ankle_angle_l	subtalar_angle_l	mtp_angle_l	lumbar_extension	lumbar_bending	lumbar_rotation	arm_flex_r	arm_add_r	arm_rot_r	elbow_flex_r	pro_sup_r	wrist_flex_r	wrist_dev_r	arm_flex_l	arm_add_l	arm_rot_l	elbow_flex_l	pro_sup_l	wrist_flex_l	wrist_dev_l
0.83	-0.0972225	0.0340208	-0.0543074	1.22616	1.02573	-0.318331	0.403172	0.052715	0.0679063	-0.244742	0.197169	-0.0103617	-0.0050004	-0.122641	0.0764442	-0.0645848	-0.615735	-0.158587	-0.0290214	-0.00540595	-0.100279	0.0374941	-0.0455161	-0.88234	-0.224368	-0.104053	2.32796	1.65838	-0.00428751	0.00297748	-0.321202	-0.332818	0.240654	2.24295	1.64086	0.0215068	0.00774612
0.84	-0.0926955	0.0298434	-0.052037	1.22497	1.01959	-0.317701	0.433455	0.0586003	0.0537317	-0.34184	0.187281	-0.0103617	-0.0050004	-0.102045	0.0634653	-0.0787434	-0.697573	-0.147494	-0.0290214	-0.00540595	-0.108164	0.0406965	-0.0390794	-0.85752	-0.22864	-0.0967706	2.32611	1.65689	-0.00428751	0.00297748	-0.339487	-0.327198	0.225259	2.22018	1.63557	0.0215068	0.00774612
0.85	-0.0859704	0.0244838	-0.0493694	1.22363	1.01288	-0.317207	0.457856	0.0660374	0.0426076	-0.433621	0.185489	-0.0103617	-0.0050004	-0.0815661	0.0503333	-0.0897988	-0.778551	-0.136209	-0.0290214	-0.00540595	-0.119368	0.0454877	-0.0316379	-0.828762	-0.232464	-0.0893817	2.3183	1.6535	-0.00428751	0.00297748	-0.355313	-0.319513	0.208222	2.19142	1.63535	0.0215068	0.00774612
0.86	-0.0769205	0.0180062	-0.0462887	1.22215	1.00585	-0.316858	0.476379	0.0749762	0.0344456	-0.520005	0.191777	-0.0103617	-0.0050004	-0.0611969	0.0371518	-0.0976441	-0.858552	-0.124693	-0.0290214	-0.00540595	-0.133811	0.0518428	-0.0232003	-0.796096	-0.23581	-0.0819059	2.30454	1.64828	-0.00428751	0.00297748	-0.368689	-0.309794	0.189584	2.1567	1.64017	0.0215068	0.00774612
0.87	-0.0656	0.0105648	-0.0427481	1.22053	0.998763	-0.316657	0.489004	0.0851998	0.0289423	-0.600834	0.205971	-0.0103617	-0.0050004	-0.0409646	0.0242567	-0.101994	-0.937256	-0.11282	-0.0290214	-0.00540595	-0.151348	0.0596263	-0.0138122	-0.759651	-0.238583	-0.0744149	2.28491	1.64148	-0.00428751	0.00297748	-0.379669	-0.298157	0.169481	2.11619	1.64999	0.0215068	0.00774612
0.88	-0.0522214	0.00244285	-0.0386728	1.21875	0.991892	-0.316622	0.495764	0.0962649	0.0255273	-0.675748	0.227489	-0.0103617	-0.0050004	-0.0208233	0.0122514	-0.102419	-1.01407	-0.100361	-0.0290214	-0.00540595	-0.1716	0.068547	-0.00355937	-0.719748	-0.240595	-0.067067	2.25972	1.63357	-0.00428751	0.00297748	-0.388412	-0.28486	0.148192	2.07037	1.66456	0.0215068	0.00774612
0.89	-0.037248	-0.00594108	-0.0339705	1.21681	0.985421	-0.316766	0.496845	0.107523	0.023435	-0.744159	0.255203	-0.0103617	-0.0050004	-0.000541587	0.00192625	-0.0984936	-1.08818	-0.0870103	-0.0290214	-0.00540595	-0.19384	0.0781573	0.00744373	-0.676991	-0.241566	-0.060133	2.22964	1.6252	-0.00428751	0.00297748	-0.395254	-0.270353	0.126173	2.02016	1.68335	0.0215068	0.00774612
0.9	-0.021486	-0.0140407	-0.0285604	1.21472	0.979438	-0.317093	0.492683	0.118239	0.0218782	-0.805361	0.28749	-0.0103617	-0.0050004	0.0203547	-0.00592728	-0.0900081	-1.15861	-0.0724609	-0.0290214	-0.00540595	-0.216982	0.0879048	0.0190867	-0.63233	-0.241164	-0.054001	2.19589	1.61719	-0.00428751	0.00297748	-0.40075	-0.255295	0.104048	1.96708	1.70537	0.0215068	0.00774612
0.91	-0.00607641	-0.0213737	-0.0224226	1.21248	0.973997	-0.31758	0.484008	0.12771	0.020249	-0.858707	0.322447	-0.0103617	-0.0050004	0.0425539	-0.0107068	-0.0771856	-1.22434	-0.0565149	-0.0290214	-0.00540595	-0.239685	0.0971509	0.0313057	-0.587054	-0.239061	-0.0491484	2.16031	1.61046	-0.00428751	0.00297748	-0.405689	-0.240532	0.0825641	1.91333	1.72905	0.0215068	0.00774612
0.92	0.00786036	-0.0275096	-0.0156756	1.21015	0.969151	-0.31818	0.471831	0.135431	0.0182546	-0.903738	0.358157	-0.0103617	-0.0050004	0.0668838	-0.0121982	-0.060806	-1.28439	-0.0391715	-0.0290214	-0.00540595	-0.260456	0.105285	0.0441381	-0.542713	-0.235009	-0.0460716	2.12532	1.60577	-0.00428751	0.00297748	-0.411059	-0.227024	0.0624969	1.86161	1.75229	0.0215068	0.00774612
0.93	0.0192853	-0.0321371	-0.0086066	1.20779	0.964951	-0.318821	0.457248	0.141157	0.0159662	-0.940249	0.392889	-0.0103617	-0.0050004	0.094103	-0.0106539	-0.0422104	-1.33786	-0.0206655	-0.0290214	-0.00540595	-0.277922	0.111783	0.0577457	-0.500962	-0.228914	-0.045186	2.09375	1.60373	-0.00428751	0.00297748	-0.417958	-0.215726	0.0445453	1.81496	1.77267	0.0215068	0.00774612
0.94	0.0273799	-0.0351193	-0.00166008	1.20547	0.961424	-0.319426	0.441244	0.144897	0.0137774	-0.968258	0.425217	-0.0103617	-0.0050004	0.124725	-0.00675757	-0.0231706	-1.38399	-0.00143446	-0.0290214	-0.00540595	-0.291028	0.116241	0.0723876	-0.463353	-0.220895	-0.0467138	2.0685	1.60469	-0.00428751	0.00297748	-0.427463	-0.207462	0.0292287	1.77633	1.78763	0.0215068	0.00774612
0.95	0.0316362	-0.0364925	0.00463905	1.20324	0.958595	-0.319918	0.424533	0.146847	0.0122781	-0.987931	0.454051	-0.0103617	-0.0050004	0.158902	-0.00150149	-0.00564068	-1.42215	0.0179671	-0.0290214	-0.00540595	-0.299144	0.118408	0.0883322	-0.431118	-0.211312	-0.0505839	2.05208	1.60876	-0.00428751	0.00297748	-0.440498	-0.202802	0.0168032	1.7482	1.79508	0.0215068	0.00774612
0.96	0.0319071	-0.0364193	0.00979151	1.20118	0.956503	-0.320237	0.407478	0.147311	0.0120975	-0.999501	0.478605	-0.0103617	-0.0050004	0.19639	0.00398511	0.00853737	-1.45187	0.0369722	-0.0290214	-0.00540595	-0.302091	0.118224	0.105745	-0.405	-0.200764	-0.056377	2.0463	1.6159	-0.00428751	0.00297748	-0.457705	-0.201975	0.0072289	1.73217	1.79373	0.0215068	0.00774612
0.97	0.0283906	-0.0351378	0.013433	1.19934	0.9552	-0.320348	0.390088	0.146608	0.0137479	-1.00321	0.498329	-0.0103617	-0.0050004	0.236568	0.00863803	0.0179198	-1.47281	0.0550928	-0.0290214	-0.00540595	-0.300077	0.115815	0.124583	-0.385176	-0.190044	-0.0633354	2.05191	1.6259	-0.00428751	0.00297748	-0.479368	-0.204833	0.000181358	1.72878	1.78346	0.0215068	0.00774612
0.98	0.02157	-0.0329167	0.0154119	1.19777	0.954744	-0.320253	0.372077	0.145001	0.0175158	-0.999306	0.512828	-0.0103617	-0.0050004	0.278504	0.0116582	0.0216729	-1.48479	0.0719765	-0.0290214	-0.00540595	-0.293621	0.111463	0.144547	-0.371283	-0.180058	-0.0704426	2.06854	1.63837	-0.00428751	0.00297748	-0.505388	-0.21087	-0.00489796	1.73744	1.7653	0.0215068	0.00774612
0.99	0.0121145	-0.0300093	0.0158166	1.1965	0.955186	-0.319983	0.352977	0.142646	0.0234061	-0.988033	0.521786	-0.0103617	-0.0050004	0.321065	0.0126738	0.019681	-1.48771	0.0874278	-0.0290214	-0.00540595	-0.283438	0.105546	0.165088	-0.362541	-0.171721	-0.0765595	2.0948	1.65274	-0.00428751	0.00297748	-0.535328	-0.219288	-0.00871938	1.7566	1.74124	0.0215068	0.00774612
1	0.000748302	-0.0265879	0.0149578	1.19557	0.956554	-0.319596	0.3323	0.139573	0.0311342	-0.969705	0.524908	-0.0103617	-0.0050004	0.363055	0.011818	0.0125362	-1.48161	0.101392	-0.0290214	-0.00540595	-0.270309	0.0984737	0.185482	-0.357933	-0.165834	-0.0805891	2.12853	1.66837	-0.00428751	0.00297748	-0.568495	-0.229103	-0.0120455	1.78401	1.71379	0.0215068	0.00774612
1.01	-0.0119051	-0.0227016	0.0132976	1.19496	0.958839	-0.319159	0.309692	0.135697	0.0401536	-0.944761	0.521906	-0.0103617	-0.0050004	0.403365	0.00970075	0.00141578	-1.4666	0.113911	-0.0290214	-0.00540595	-0.25497	0.0906245	0.20493	-0.356397	-0.162992	-0.0816297	2.16715	1.68454	-0.00428751	0.00297748	-0.604043	-0.23927	-0.0155899	1.81713	1.68555	0.0215068	0.00774612
1.02	-0.0253449	-0.0183856	0.0113604	1.19469	0.961997	-0.318739	0.285067	0.130825	0.049721	-0.913812	0.512513	-0.0103617	-0.0050004	0.441101	0.00729959	-0.012139	-1.44285	0.125066	-0.0290214	-0.00540595	-0.237995	0.0822549	0.222664	-0.356991	-0.163516	-0.079086	2.20803	1.70057	-0.00428751	0.00297748	-0.641067	-0.248813	-0.0199261	1.85348	1.65883	0.0215068	0.00774612
1.03	-0.0392452	-0.0136212	0.00964427	1.19474	0.965942	-0.318398	0.258649	0.124725	0.0589793	-0.877674	0.496537	-0.0103617	-0.0050004	0.47564	0.00575008	-0.0264707	-1.41059	0.134919	-0.0290214	-0.00540595	-0.219768	0.0734996	0.238073	-0.359001	-0.167435	-0.0727221	2.24876	1.7158	-0.00428751	0.00297748	-0.678674	-0.25693	-0.0254286	1.89085	1.63536	0.0215068	0.00774612
1.04	-0.0534382	-0.00835679	0.00853962	1.19511	0.970552	-0.318184	0.230932	0.1172	0.0670676	-0.83736	0.473922	-0.0103617	-0.0050004	0.506602	0.00611669	-0.040048	-1.37006	0.143485	-0.0290214	-0.00540595	-0.200524	0.0643879	0.250781	-0.361983	-0.174511	-0.0626596	2.28736	1.72962	-0.00428751	0.00297748	-0.716027	-0.263065	-0.032243	1.92751	1.61618	0.0215068	0.00774612
1.05	-0.0678497	-0.00254274	0.00827869	1.19576	0.975683	-0.318124	0.202572	0.108149	0.0732362	-0.794048	0.444801	-0.0103617	-0.0050004	0.53377	0.00919653	-0.051644	-1.32148	0.150731	-0.0290214	-0.00540595	-0.180424	0.0548826	0.260682	-0.365743	-0.184292	-0.0493241	2.32237	1.74145	-0.00428751	0.00297748	-0.75237	-0.266934	-0.0403017	1.96224	1.60158	0.0215068	0.00774612
1.06	-0.0824121	0.00383299	0.00892191	1.19668	0.981176	-0.318228	0.174258	0.0976195	0.0769447	-0.749032	0.409528	-0.0103617	-0.0050004	0.55699	0.015389	-0.0604327	-1.26512	0.156605	-0.0290214	-0.00540595	-0.159658	0.044934	0.267925	-0.370277	-0.19618	-0.0333612	2.3529	1.75076	-0.00428751	0.00297748	-0.787043	-0.268504	-0.0493723	1.99434	1.59132	0.0215068	0.00774612
1.07	-0.0969856	0.0107139	0.0103758	1.19781	0.986876	-0.318479	0.1466	0.0858202	0.0779258	-0.703671	0.368677	-0.0103617	-0.0050004	0.576081	0.0246457	-0.0660053	-1.20123	0.161088	-0.0290214	-0.00540595	-0.138527	0.0345377	0.272849	-0.375682	-0.209503	-0.0155428	2.3785	1.75708	-0.00428751	0.00297748	-0.819487	-0.267952	-0.0591235	2.02349	1.58476	0.0215068	0.00774612
1.08	-0.111308	0.0179551	0.0124301	1.19912	0.992637	-0.318844	0.120058	0.0731238	0.0762049	-0.659356	0.32302	-0.0103617	-0.0050004	0.590783	0.0365003	-0.0683234	-1.13019	0.164224	-0.0290214	-0.00540595	-0.117495	0.02378	0.275915	-0.382082	-0.223584	0.00331544	2.39914	1.76003	-0.00428751	0.00297748	-0.84924	-0.265593	-0.0691868	2.04971	1.58112	0.0215068	0.00774612
1.09	-0.124981	0.0253191	0.0148024	1.20056	0.998329	-0.319277	0.0949191	0.0600353	0.0720844	-0.617481	0.273494	-0.0103617	-0.0050004	0.600757	0.0501626	-0.0676325	-1.05255	0.166151	-0.0290214	-0.00540595	-0.0971919	0.012862	0.277626	-0.389562	-0.237789	0.022413	2.41503	1.75936	-0.00428751	0.00297748	-0.875923	-0.261827	-0.0792034	2.07317	1.57964	0.0215068	0.00774612
1.1	-0.137495	0.0324913	0.0171855	1.20207	1.00384	-0.319725	0.071323	0.0471414	0.0661021	-0.579429	0.221161	-0.0103617	-0.0050004	0.605629	0.0646607	-0.0643643	-0.969098	0.167105	-0.0290214	-0.00540595	-0.0783777	0.00209652	0.278467	-0.398139	-0.251566	0.0410008	2.42654	1.75507	-0.00428751	0.00297748	-0.899233	-0.257072	-0.0888519	2.09415	1.57969	0.0215068	0.00774612
1.11	-0.148287	0.0391209	0.0192922	1.2036	1.00907	-0.320133	0.0493251	0.0350443	0.0589794	-0.546549	0.167161	-0.0103617	-0.0050004	0.605082	0.0790003	-0.059052	-0.880967	0.167407	-0.0290214	-0.00540595	-0.0618591	-0.00812822	0.278851	-0.407755	-0.264458	0.0584036	2.43408	1.74749	-0.00428751	0.00297748	-0.918923	-0.251728	-0.097858	2.11293	1.58079	0.0215068	0.00774612
1.12	-0.156815	0.0448781	0.0208972	1.20511	1.01392	-0.320462	0.0289714	0.0242871	0.0515665	-0.520122	0.112676	-0.0103617	-0.0050004	0.598956	0.092317	-0.0522784	-0.789665	0.167433	-0.0290214	-0.00540595	-0.0483812	-0.0174096	0.279079	-0.418294	-0.276113	0.0740374	2.43809	1.73724	-0.00428751	0.00297748	-0.934801	-0.246143	-0.105995	2.12973	1.58259	0.0215068	0.00774612
1.13	-0.162624	0.0495069	0.0218679	1.20655	1.01831	-0.320684	0.0103621	0.0152825	0.044789	-0.501316	0.0588849	-0.0103617	-0.0050004	0.587347	0.104001	-0.0446549	-0.697085	0.167552	-0.0290214	-0.00540595	-0.038525	-0.0254089	0.279311	-0.429617	-0.28627	0.0874282	2.43891	1.72518	-0.00428751	0.00297748	-0.946734	-0.240602	-0.113078	2.14472	1.58484	0.0215068	0.00774612
1.14	-0.165417	0.0528472	0.0221749	1.20791	1.02216	-0.320792	-0.00631381	0.0082629	0.0395923	-0.491145	0.00693136	-0.0103617	-0.0050004	0.570665	0.11377	-0.0368153	-0.60548	0.168048	-0.0290214	-0.00540595	-0.0326389	-0.031932	0.279554	-0.441579	-0.29474	0.0982275	2.43682	1.71234	-0.00428751	0.00297748	-0.954655	-0.235319	-0.118962	2.15801	1.58729	0.0215068	0.00774612
